<svg id="visual" viewBox="0 0 960 540" width="960" height="540" xmlns="http://www.w3.org/2000/svg" xmlns:xlink="http://www.w3.org/1999/xlink" version="1.1"><rect x="0" y="0" width="960" height="540" fill="#001220"></rect><path d="M0 361L22.8 366.3C45.7 371.7 91.3 382.3 137 375.2C182.7 368 228.3 343 274 331.7C319.7 320.3 365.3 322.7 411.2 335.8C457 349 503 373 548.8 384C594.7 395 640.3 393 686 379.3C731.7 365.7 777.3 340.3 823 334.3C868.7 328.3 914.3 341.7 937.2 348.3L960 355L960 541L937.2 541C914.3 541 868.7 541 823 541C777.3 541 731.7 541 686 541C640.3 541 594.7 541 548.8 541C503 541 457 541 411.2 541C365.3 541 319.7 541 274 541C228.3 541 182.7 541 137 541C91.3 541 45.7 541 22.8 541L0 541Z" fill="#f7f4f3"></path><path d="M0 420L22.8 416.2C45.7 412.3 91.3 404.7 137 399.7C182.7 394.7 228.3 392.3 274 385.2C319.7 378 365.3 366 411.2 367.2C457 368.3 503 382.7 548.8 391.7C594.7 400.7 640.3 404.3 686 398.3C731.7 392.3 777.3 376.7 823 373.5C868.7 370.3 914.3 379.7 937.2 384.3L960 389L960 541L937.2 541C914.3 541 868.7 541 823 541C777.3 541 731.7 541 686 541C640.3 541 594.7 541 548.8 541C503 541 457 541 411.2 541C365.3 541 319.7 541 274 541C228.3 541 182.7 541 137 541C91.3 541 45.7 541 22.8 541L0 541Z" fill="#e4e2e1"></path><path d="M0 445L22.8 442.5C45.7 440 91.3 435 137 431.8C182.7 428.7 228.3 427.3 274 432C319.7 436.7 365.3 447.3 411.2 445.2C457 443 503 428 548.8 418.2C594.7 408.3 640.3 403.7 686 406.2C731.7 408.7 777.3 418.3 823 422.2C868.7 426 914.3 424 937.2 423L960 422L960 541L937.2 541C914.3 541 868.7 541 823 541C777.3 541 731.7 541 686 541C640.3 541 594.7 541 548.8 541C503 541 457 541 411.2 541C365.3 541 319.7 541 274 541C228.3 541 182.7 541 137 541C91.3 541 45.7 541 22.8 541L0 541Z" fill="#d1d0cf"></path><path d="M0 436L22.8 443.3C45.7 450.7 91.3 465.3 137 472.2C182.7 479 228.3 478 274 475.7C319.7 473.3 365.3 469.7 411.2 468C457 466.3 503 466.7 548.8 467.3C594.7 468 640.3 469 686 470.8C731.7 472.7 777.3 475.3 823 474.2C868.7 473 914.3 468 937.2 465.5L960 463L960 541L937.2 541C914.3 541 868.7 541 823 541C777.3 541 731.7 541 686 541C640.3 541 594.7 541 548.8 541C503 541 457 541 411.2 541C365.3 541 319.7 541 274 541C228.3 541 182.7 541 137 541C91.3 541 45.7 541 22.8 541L0 541Z" fill="#bfbebe"></path><path d="M0 486L22.8 483.8C45.7 481.7 91.3 477.3 137 481.7C182.7 486 228.3 499 274 498.8C319.7 498.7 365.3 485.3 411.2 480C457 474.7 503 477.3 548.8 478.5C594.7 479.7 640.3 479.3 686 482.7C731.7 486 777.3 493 823 493.5C868.7 494 914.3 488 937.2 485L960 482L960 541L937.2 541C914.3 541 868.7 541 823 541C777.3 541 731.7 541 686 541C640.3 541 594.7 541 548.8 541C503 541 457 541 411.2 541C365.3 541 319.7 541 274 541C228.3 541 182.7 541 137 541C91.3 541 45.7 541 22.8 541L0 541Z" fill="#adadad"></path></svg>