<svg id="visual" viewBox="0 0 900 300" width="900" height="300" xmlns="http://www.w3.org/2000/svg" xmlns:xlink="http://www.w3.org/1999/xlink" version="1.1"><rect x="0" y="0" width="900" height="300" fill="#001220"></rect><path d="M0 127L21.5 129.2C43 131.3 86 135.7 128.8 144C171.7 152.3 214.3 164.7 257.2 160.8C300 157 343 137 385.8 134.2C428.7 131.3 471.3 145.7 514.2 152.2C557 158.7 600 157.3 642.8 158.8C685.7 160.3 728.3 164.7 771.2 159.5C814 154.3 857 139.7 878.5 132.3L900 125L900 301L878.5 301C857 301 814 301 771.2 301C728.3 301 685.7 301 642.8 301C600 301 557 301 514.2 301C471.3 301 428.7 301 385.8 301C343 301 300 301 257.2 301C214.3 301 171.7 301 128.8 301C86 301 43 301 21.5 301L0 301Z" fill="#e1734f"></path><path d="M0 176L21.5 178.5C43 181 86 186 128.8 189.8C171.7 193.7 214.3 196.3 257.2 197.3C300 198.3 343 197.7 385.8 197.8C428.7 198 471.3 199 514.2 190.3C557 181.7 600 163.3 642.8 158.7C685.7 154 728.3 163 771.2 165.2C814 167.3 857 162.7 878.5 160.3L900 158L900 301L878.5 301C857 301 814 301 771.2 301C728.3 301 685.7 301 642.8 301C600 301 557 301 514.2 301C471.3 301 428.7 301 385.8 301C343 301 300 301 257.2 301C214.3 301 171.7 301 128.8 301C86 301 43 301 21.5 301L0 301Z" fill="#f09584"></path><path d="M0 189L21.5 192.8C43 196.7 86 204.3 128.8 206.3C171.7 208.3 214.3 204.7 257.2 210C300 215.3 343 229.7 385.8 227.7C428.7 225.7 471.3 207.3 514.2 204.2C557 201 600 213 642.8 220.5C685.7 228 728.3 231 771.2 231.8C814 232.7 857 231.3 878.5 230.7L900 230L900 301L878.5 301C857 301 814 301 771.2 301C728.3 301 685.7 301 642.8 301C600 301 557 301 514.2 301C471.3 301 428.7 301 385.8 301C343 301 300 301 257.2 301C214.3 301 171.7 301 128.8 301C86 301 43 301 21.5 301L0 301Z" fill="#f7bab5"></path><path d="M0 244L21.5 248.5C43 253 86 262 128.8 260.8C171.7 259.7 214.3 248.3 257.2 243.5C300 238.7 343 240.3 385.8 243.5C428.7 246.7 471.3 251.3 514.2 250.3C557 249.3 600 242.7 642.8 244C685.7 245.3 728.3 254.7 771.2 257.8C814 261 857 258 878.5 256.5L900 255L900 301L878.5 301C857 301 814 301 771.2 301C728.3 301 685.7 301 642.8 301C600 301 557 301 514.2 301C471.3 301 428.7 301 385.8 301C343 301 300 301 257.2 301C214.3 301 171.7 301 128.8 301C86 301 43 301 21.5 301L0 301Z" fill="#f7e0e0"></path></svg>